<svg xmlns="http://www.w3.org/2000/svg" viewBox="-510 691 90 90"><path d="M-465 691c-24.8 0-45 20.2-45 45s20.2 45 45 45 45-20.2 45-45-20.2-45-45-45zm0 84.3c-21.7 0-39.3-17.6-39.3-39.3s17.6-39.3 39.3-39.3 39.3 17.6 39.3 39.3-17.6 39.3-39.3 39.3z"/><path d="M-478.9 718.1h2c1.6 0 2.9-1.3 2.9-2.9s-1.3-2.9-2.9-2.9h-8.8c-.2 0-.4 0-.6.1-.1 0-.1 0-.2.1-.1 0-.2.1-.3.1-.1 0-.2.1-.2.1-.1 0-.2.1-.2.1-.1.1-.3.2-.4.3-.1.1-.2.3-.3.4-.1.1-.1.2-.1.2 0 .1-.1.2-.1.2 0 .1-.1.2-.1.3s0 .1-.1.2c0 .2-.1.4-.1.6v8.8c0 1.6 1.3 2.9 2.9 2.9s2.9-1.3 2.9-2.9v-2l9.4 9.4c.6.6 1.3.8 2 .8s1.5-.3 2-.8c1.1-1.1 1.1-2.9 0-4l-9.7-9.1zm37.4-3.6c0-.1-.1-.2-.1-.3 0-.1-.1-.2-.1-.2 0-.1-.1-.2-.1-.2-.1-.1-.2-.3-.3-.4-.1-.1-.3-.2-.4-.3-.1-.1-.2-.1-.2-.1-.1 0-.2-.1-.2-.1-.1 0-.2-.1-.3-.1s-.1-.1-.2-.1c-.2 0-.4-.1-.6-.1h-8.8c-1.6 0-2.9 1.3-2.9 2.9 0 1.6 1.3 2.9 2.9 2.9h2l-9.4 9.4c-1.1 1.1-1.1 2.9 0 4 .6.6 1.3.8 2 .8s1.5-.3 2-.8l9.4-9.4v2c0 1.6 1.3 2.9 2.9 2.9 1.6 0 2.9-1.3 2.9-2.9v-8.8c0-.2 0-.4-.1-.6-.3-.4-.4-.5-.4-.5zm-32 25.9l-9.4 9.4v-1.9c0-1.6-1.3-2.9-2.9-2.9-1.6 0-2.9 1.3-2.9 2.9v8.8c0 .2 0 .4.1.6 0 .1 0 .1.1.2 0 .1.1.2.1.3 0 .1.1.2.1.2 0 .1.1.2.1.2.1.1.2.3.3.4.1.1.3.2.4.3.1.1.2.1.2.1.1 0 .2.1.3.1.1 0 .2.1.3.1s.2.1.2.1c.2 0 .4.1.6.1h8.8c1.6 0 2.9-1.3 2.9-2.9 0-1.6-1.3-2.9-2.9-2.9h-2l9.4-9.4c1.1-1.1 1.1-2.9 0-4-.9-.9-2.7-.9-3.8.2zm31.8 17.7c0-.1.1-.2.1-.2 0-.1.1-.2.1-.3s0-.1.1-.2c0-.2.1-.4.1-.6V748c0-1.6-1.3-2.9-2.9-2.9-1.6 0-2.9 1.3-2.9 2.9v1.9l-9.4-9.4c-1.1-1.1-2.9-1.1-4 0s-1.1 2.9 0 4l9.4 9.4h-2c-1.6 0-2.9 1.3-2.9 2.9s1.3 2.9 2.9 2.9h8.8c.2 0 .4 0 .6-.1.1 0 .2 0 .2-.1.1 0 .2-.1.3-.1s.2-.1.3-.1c.1 0 .2-.1.2-.1.1-.1.3-.2.4-.3.1-.1.2-.3.3-.4.2-.2.2-.3.3-.4z"/></svg>