<?xml version="1.0" encoding="utf-8"?>
<!-- Generator: Adobe Illustrator 19.1.0, SVG Export Plug-In . SVG Version: 6.00 Build 0)  -->
<svg version="1.1" id="Layer_1" xmlns="http://www.w3.org/2000/svg" xmlns:xlink="http://www.w3.org/1999/xlink" x="0px" y="0px"
	 viewBox="-445 231 68.1 100" style="enable-background:new -445 231 68.1 100;" xml:space="preserve">
<style type="text/css">
	.st0{fill:#FFFFFF;}
	.st1{fill:#0033A1;}
</style>
<polygon class="st0" points="-395.9,245 -410.2,239.6 -433.4,255 -430.9,274.9 -410.1,287.9 -389,268.4 "/>
<path class="st1" d="M-411,231c-14.9,0-29.8,10.6-34,31.9c0,12.8,8.5,38.3,34,68.1c25.5-29.8,34-55.3,34-68.1
	C-381.2,241.6-396.1,231-411,231z M-411,279.9c-9.4,0-17-7.6-17-17s7.6-17,17-17s17,7.6,17,17C-393.9,272.3-401.6,279.9-411,279.9z"
	/>
</svg>
