<?xml version="1.0" encoding="utf-8"?>
<!-- Generator: Adobe Illustrator 19.1.0, SVG Export Plug-In . SVG Version: 6.00 Build 0)  -->
<svg version="1.1" id="Layer_1" xmlns="http://www.w3.org/2000/svg" xmlns:xlink="http://www.w3.org/1999/xlink" x="0px" y="0px"
	 viewBox="-510 691 90 90" style="enable-background:new -510 691 90 90;" xml:space="preserve">
<path d="M-465,691c-24.8,0-45,20.2-45,45s20.2,45,45,45s45-20.2,45-45S-440.2,691-465,691z M-465,775.3c-21.7,0-39.3-17.6-39.3-39.3
	s17.6-39.3,39.3-39.3s39.3,17.6,39.3,39.3S-443.3,775.3-465,775.3z"/>
<path d="M-478.9,718.1h2c1.6,0,2.9-1.3,2.9-2.9s-1.3-2.9-2.9-2.9h-8.8c-0.2,0-0.4,0-0.6,0.1c-0.1,0-0.1,0-0.2,0.1
	c-0.1,0-0.2,0.1-0.3,0.1c-0.1,0-0.2,0.1-0.2,0.1c-0.1,0-0.2,0.1-0.2,0.1c-0.1,0.1-0.3,0.2-0.4,0.3c-0.1,0.1-0.2,0.3-0.3,0.4
	c-0.1,0.1-0.1,0.2-0.1,0.2c0,0.1-0.1,0.2-0.1,0.2c0,0.1-0.1,0.2-0.1,0.3s0,0.1-0.1,0.2c0,0.2-0.1,0.4-0.1,0.6v8.8
	c0,1.6,1.3,2.9,2.9,2.9s2.9-1.3,2.9-2.9v-2l9.4,9.4c0.6,0.6,1.3,0.8,2,0.8s1.5-0.3,2-0.8c1.1-1.1,1.1-2.9,0-4
	C-469.2,727.2-478.9,718.1-478.9,718.1z M-441.5,714.5c0-0.1-0.1-0.2-0.1-0.3c0-0.1-0.1-0.2-0.1-0.2c0-0.1-0.1-0.2-0.1-0.2
	c-0.1-0.1-0.2-0.3-0.3-0.4c-0.1-0.1-0.3-0.2-0.4-0.3c-0.1-0.1-0.2-0.1-0.2-0.1c-0.1,0-0.2-0.1-0.2-0.1c-0.1,0-0.2-0.1-0.3-0.1
	s-0.1-0.1-0.2-0.1c-0.2,0-0.4-0.1-0.6-0.1h-8.8c-1.6,0-2.9,1.3-2.9,2.9c0,1.6,1.3,2.9,2.9,2.9h2l-9.4,9.4c-1.1,1.1-1.1,2.9,0,4
	c0.6,0.6,1.3,0.8,2,0.8s1.5-0.3,2-0.8l9.4-9.4v2c0,1.6,1.3,2.9,2.9,2.9c1.6,0,2.9-1.3,2.9-2.9v-8.8c0-0.2,0-0.4-0.1-0.6
	C-441.4,714.6-441.5,714.5-441.5,714.5z M-473.5,740.4l-9.4,9.4v-1.9c0-1.6-1.3-2.9-2.9-2.9c-1.6,0-2.9,1.3-2.9,2.9v8.8
	c0,0.2,0,0.4,0.1,0.6c0,0.1,0,0.1,0.1,0.2c0,0.1,0.1,0.2,0.1,0.3c0,0.1,0.1,0.2,0.1,0.2c0,0.1,0.1,0.2,0.1,0.2
	c0.1,0.1,0.2,0.3,0.3,0.4c0.1,0.1,0.3,0.2,0.4,0.3c0.1,0.1,0.2,0.1,0.2,0.1c0.1,0,0.2,0.1,0.3,0.1c0.1,0,0.2,0.1,0.3,0.1
	s0.2,0.1,0.2,0.1c0.2,0,0.4,0.1,0.6,0.1h8.8c1.6,0,2.9-1.3,2.9-2.9c0-1.6-1.3-2.9-2.9-2.9h-2l9.4-9.4c1.1-1.1,1.1-2.9,0-4
	C-470.6,739.3-472.4,739.3-473.5,740.4L-473.5,740.4z M-441.7,758.1c0-0.1,0.1-0.2,0.1-0.2c0-0.1,0.1-0.2,0.1-0.3s0-0.1,0.1-0.2
	c0-0.2,0.1-0.4,0.1-0.6V748c0-1.6-1.3-2.9-2.9-2.9c-1.6,0-2.9,1.3-2.9,2.9v1.9l-9.4-9.4c-1.1-1.1-2.9-1.1-4,0c-1.1,1.1-1.1,2.9,0,4
	l9.4,9.4h-2c-1.6,0-2.9,1.3-2.9,2.9s1.3,2.9,2.9,2.9h8.8c0.2,0,0.4,0,0.6-0.1c0.1,0,0.2,0,0.2-0.1c0.1,0,0.2-0.1,0.3-0.1
	s0.2-0.1,0.3-0.1c0.1,0,0.2-0.1,0.2-0.1c0.1-0.1,0.3-0.2,0.4-0.3c0.1-0.1,0.2-0.3,0.3-0.4C-441.8,758.3-441.8,758.2-441.7,758.1z"/>
</svg>
